<svg xmlns="http://www.w3.org/2000/svg" xmlns:xlink="http://www.w3.org/1999/xlink" width="500" zoomAndPan="magnify" viewBox="0 0 375 374.999991" height="500" preserveAspectRatio="xMidYMid meet" version="1.0"><defs><g/><clipPath id="64d5fd5f67"><path d="M 58.355469 177 L 66 177 L 66 183 L 58.355469 183 Z M 58.355469 177 " clip-rule="nonzero"/></clipPath><clipPath id="f314f98e3e"><path d="M 127 58.636719 L 183 58.636719 L 183 80 L 127 80 Z M 127 58.636719 " clip-rule="nonzero"/></clipPath><clipPath id="0850cefdc1"><path d="M 191 58.636719 L 275 58.636719 L 275 98 L 191 98 Z M 191 58.636719 " clip-rule="nonzero"/></clipPath><clipPath id="e243668bdc"><path d="M 192 268 L 284 268 L 284 316.636719 L 192 316.636719 Z M 192 268 " clip-rule="nonzero"/></clipPath><clipPath id="312c42817b"><path d="M 295.308594 192.796875 L 316.332031 192.796875 L 316.332031 248 L 295.308594 248 Z M 295.308594 192.796875 " clip-rule="nonzero"/></clipPath></defs><rect x="-37.5" width="450" fill="#ffffff" y="-37.499999" height="449.999989" fill-opacity="1"/><rect x="-37.5" width="450" fill="#ffffff" y="-37.499999" height="449.999989" fill-opacity="1"/><rect x="-37.5" width="450" fill="#ffffff" y="-37.499999" height="449.999989" fill-opacity="1"/><g clip-path="url(#64d5fd5f67)"><path fill="#81a969" d="M 58.664062 177.890625 C 58.558594 179.289062 58.441406 180.679688 58.378906 182.089844 C 60.6875 182.054688 62.992188 182.011719 65.296875 181.984375 C 65.359375 180.710938 65.46875 179.453125 65.566406 178.191406 C 63.261719 178.117188 60.964844 178.011719 58.664062 177.890625 " fill-opacity="1" fill-rule="nonzero"/></g><path fill="#81a969" d="M 119.117188 78.117188 C 87.847656 97.6875 65.5 130.253906 59.746094 168.210938 C 62.0625 168.324219 64.378906 168.425781 66.695312 168.5 C 72.332031 132.839844 93.453125 102.28125 122.914062 83.898438 C 121.632812 81.980469 120.371094 80.054688 119.117188 78.117188 " fill-opacity="1" fill-rule="nonzero"/><g clip-path="url(#f314f98e3e)"><path fill="#81a969" d="M 182.234375 58.644531 C 162.5625 59.414062 144.019531 64.621094 127.554688 73.269531 C 128.816406 75.214844 130.085938 77.152344 131.375 79.078125 C 146.722656 71.125 163.964844 66.363281 182.234375 65.601562 L 182.234375 58.644531 " fill-opacity="1" fill-rule="nonzero"/></g><g clip-path="url(#0850cefdc1)"><path fill="#81a969" d="M 191.960938 65.554688 C 222 66.671875 249.296875 78.675781 270.015625 97.738281 C 271.527344 96 272.984375 94.207031 274.445312 92.414062 C 252.523438 72.351562 223.679688 59.761719 191.960938 58.636719 L 191.960938 65.554688 " fill-opacity="1" fill-rule="nonzero"/></g><g clip-path="url(#e243668bdc)"><path fill="#81a969" d="M 283.910156 273.214844 C 282.101562 271.78125 280.308594 270.328125 278.492188 268.902344 C 257.175781 292.792969 226.644531 308.292969 192.519531 309.714844 C 192.460938 312.023438 192.40625 314.328125 192.371094 316.636719 C 228.738281 315.238281 261.28125 298.714844 283.910156 273.214844 " fill-opacity="1" fill-rule="nonzero"/></g><path fill="#81a969" d="M 290.0625 265.753906 C 292.359375 262.742188 294.527344 259.628906 296.554688 256.417969 C 294.609375 255.183594 292.664062 253.945312 290.714844 252.714844 C 288.816406 255.71875 286.789062 258.632812 284.644531 261.453125 C 286.460938 262.875 288.25 264.324219 290.0625 265.753906 " fill-opacity="1" fill-rule="nonzero"/><g clip-path="url(#312c42817b)"><path fill="#81a969" d="M 295.566406 244.277344 C 297.519531 245.511719 299.46875 246.753906 301.417969 247.988281 C 310.171875 231.519531 315.484375 212.949219 316.332031 193.226562 C 314.027344 193.179688 311.722656 193.074219 309.421875 192.902344 C 308.636719 211.382812 303.699219 228.796875 295.566406 244.277344 " fill-opacity="1" fill-rule="nonzero"/></g><path fill="#81a969" d="M 126 281.046875 L 121.296875 287.839844 C 121.867188 288.226562 122.441406 288.617188 123.019531 288.996094 L 127.75 282.171875 C 127.164062 281.800781 126.578125 281.429688 126 281.046875 " fill-opacity="1" fill-rule="nonzero"/><path fill="#81a969" d="M 106.941406 265.214844 L 101.121094 270.691406 C 101.601562 271.195312 102.082031 271.691406 102.566406 272.183594 L 108.375 266.714844 C 107.886719 266.226562 107.421875 265.707031 106.941406 265.214844 " fill-opacity="1" fill-rule="nonzero"/><path fill="#81a969" d="M 91.71875 245.523438 L 84.914062 249.660156 C 85.277344 250.246094 85.652344 250.828125 86.023438 251.414062 L 92.84375 247.269531 C 92.472656 246.6875 92.082031 246.113281 91.71875 245.523438 " fill-opacity="1" fill-rule="nonzero"/><path fill="#81a969" d="M 76.09375 198.726562 L 67.269531 199.863281 C 67.359375 200.550781 67.449219 201.238281 67.550781 201.921875 L 76.34375 200.785156 C 76.261719 200.101562 76.164062 199.417969 76.09375 198.726562 " fill-opacity="1" fill-rule="nonzero"/><path fill="#81a969" d="M 81.328125 223.074219 L 73.5 225.824219 C 73.730469 226.476562 73.964844 227.128906 74.207031 227.777344 L 81.996094 225.039062 C 81.765625 224.386719 81.550781 223.730469 81.328125 223.074219 " fill-opacity="1" fill-rule="nonzero"/><path fill="#81a969" d="M 278.78125 123.390625 L 284.65625 118.625 C 284.253906 118.101562 283.84375 117.589844 283.429688 117.074219 L 277.632812 121.78125 C 278.023438 122.3125 278.402344 122.855469 278.78125 123.390625 " fill-opacity="1" fill-rule="nonzero"/><path fill="#81a969" d="M 290.035156 143.425781 L 297.683594 139.5 C 297.394531 138.910156 297.105469 138.320312 296.808594 137.734375 L 289.21875 141.625 C 289.492188 142.226562 289.773438 142.816406 290.035156 143.425781 " fill-opacity="1" fill-rule="nonzero"/><path fill="#81a969" d="M 296.914062 165.246094 L 306.199219 162.734375 C 306.035156 162.089844 305.867188 161.457031 305.695312 160.824219 L 296.472656 163.324219 C 296.613281 163.964844 296.78125 164.601562 296.914062 165.246094 " fill-opacity="1" fill-rule="nonzero"/><path fill="#81a969" d="M 172.234375 298.40625 L 170.507812 307.816406 C 171.191406 307.933594 171.875 308.054688 172.558594 308.167969 L 174.296875 298.667969 C 173.609375 298.589844 172.921875 298.496094 172.234375 298.40625 " fill-opacity="1" fill-rule="nonzero"/><path fill="#81a969" d="M 147.921875 292.253906 L 144.535156 300.339844 C 145.175781 300.605469 145.820312 300.855469 146.46875 301.105469 L 149.871094 292.972656 C 149.21875 292.738281 148.570312 292.496094 147.921875 292.253906 " fill-opacity="1" fill-rule="nonzero"/><path fill="#81a969" d="M 261.582031 112.40625 L 261.871094 112.6875 L 276.980469 97.578125 L 277.296875 97.894531 C 300.710938 121.394531 313.847656 152.601562 314.285156 185.765625 L 314.292969 186.21875 L 292.9375 186.167969 L 292.945312 187.484375 C 292.945312 215.453125 282.109375 241.808594 262.433594 261.710938 C 242.859375 281.507812 215.375 292.910156 186.960938 293.023438 L 186.949219 293.476562 L 186.949219 314.425781 L 186.496094 314.421875 C 116.964844 313.957031 60.394531 257.011719 60.394531 187.484375 L 60.394531 187.03125 L 69.816406 187.03125 L 69.820312 186.625 C 69.832031 184.683594 69.894531 182.742188 70 180.8125 C 70.023438 180.398438 70.058594 179.988281 70.097656 179.574219 L 70.21875 178.019531 C 70.289062 177.027344 70.359375 176.035156 70.464844 175.046875 C 70.515625 174.542969 70.585938 174.050781 70.652344 173.550781 L 70.875 171.789062 C 70.976562 170.976562 71.074219 170.15625 71.199219 169.347656 C 71.285156 168.789062 71.390625 168.230469 71.492188 167.679688 L 71.808594 165.917969 C 71.933594 165.179688 72.058594 164.441406 72.210938 163.710938 C 72.328125 163.132812 72.464844 162.558594 72.601562 161.984375 L 72.988281 160.296875 C 73.148438 159.578125 73.308594 158.863281 73.488281 158.144531 C 73.636719 157.566406 73.804688 156.988281 73.972656 156.402344 L 74.449219 154.71875 C 74.632812 154.035156 74.824219 153.351562 75.03125 152.675781 C 75.210938 152.089844 75.410156 151.515625 75.605469 150.9375 L 76.171875 149.253906 C 76.386719 148.59375 76.605469 147.9375 76.839844 147.289062 C 77.054688 146.699219 77.285156 146.109375 77.519531 145.527344 L 78.152344 143.90625 C 78.398438 143.269531 78.640625 142.632812 78.902344 142.007812 C 79.152344 141.40625 79.421875 140.816406 79.691406 140.222656 L 80.375 138.707031 C 80.652344 138.078125 80.929688 137.453125 81.222656 136.832031 C 81.503906 136.246094 81.804688 135.660156 82.101562 135.082031 L 82.886719 133.542969 C 83.183594 132.949219 83.480469 132.351562 83.796875 131.769531 C 84.113281 131.1875 84.445312 130.613281 84.777344 130.039062 L 85.589844 128.613281 C 85.929688 128.015625 86.269531 127.417969 86.621094 126.828125 C 86.960938 126.265625 87.3125 125.71875 87.671875 125.164062 L 88.585938 123.734375 C 88.945312 123.160156 89.3125 122.585938 89.691406 122.023438 C 90.074219 121.449219 90.480469 120.886719 90.882812 120.328125 L 91.835938 118.976562 C 92.21875 118.433594 92.601562 117.886719 93 117.351562 C 93.421875 116.792969 93.855469 116.246094 94.289062 115.695312 L 95.273438 114.441406 C 95.695312 113.902344 96.117188 113.363281 96.554688 112.832031 C 96.992188 112.296875 97.449219 111.777344 97.902344 111.257812 L 98.933594 110.066406 C 99.398438 109.527344 99.859375 108.988281 100.339844 108.460938 C 100.824219 107.925781 101.328125 107.40625 101.832031 106.882812 L 102.824219 105.847656 C 103.234375 105.414062 103.648438 104.980469 104.074219 104.554688 L 104.386719 104.238281 L 112.839844 112.6875 L 113.125 112.40625 C 133.027344 92.722656 159.386719 81.886719 187.355469 81.886719 C 215.324219 81.886719 241.683594 92.722656 261.582031 112.40625 Z M 182.117188 81.207031 C 181.789062 81.21875 181.464844 81.246094 181.136719 81.273438 L 180.003906 81.355469 C 178.972656 81.417969 177.945312 81.484375 176.925781 81.582031 C 176.5 81.621094 176.078125 81.679688 175.65625 81.730469 L 174.152344 81.914062 C 173.359375 82.003906 172.570312 82.089844 171.78125 82.210938 C 171.328125 82.273438 170.878906 82.351562 170.433594 82.433594 L 168.867188 82.699219 C 168.140625 82.820312 167.417969 82.9375 166.695312 83.078125 C 166.222656 83.167969 165.75 83.28125 165.277344 83.390625 L 163.714844 83.730469 C 163.035156 83.878906 162.355469 84.023438 161.679688 84.1875 C 161.203125 84.308594 160.730469 84.441406 160.257812 84.570312 L 158.847656 84.953125 C 158.144531 85.144531 157.4375 85.328125 156.738281 85.539062 C 156.246094 85.6875 155.761719 85.84375 155.28125 86.007812 L 153.792969 86.492188 C 153.148438 86.695312 152.507812 86.902344 151.871094 87.125 C 151.367188 87.304688 150.863281 87.496094 150.367188 87.691406 L 149.054688 88.195312 C 148.394531 88.4375 147.742188 88.683594 147.09375 88.945312 C 146.605469 89.148438 146.117188 89.359375 145.632812 89.574219 L 144.277344 90.164062 C 143.652344 90.433594 143.027344 90.707031 142.410156 90.996094 C 141.929688 91.21875 141.453125 91.460938 140.976562 91.699219 L 139.734375 92.316406 C 139.09375 92.628906 138.457031 92.941406 137.828125 93.269531 C 137.339844 93.527344 136.855469 93.804688 136.371094 94.074219 L 135.199219 94.734375 C 134.582031 95.070312 133.960938 95.414062 133.355469 95.769531 C 132.890625 96.046875 132.4375 96.335938 131.980469 96.621094 L 130.71875 97.40625 C 130.140625 97.765625 129.5625 98.121094 128.996094 98.496094 C 128.542969 98.792969 128.097656 99.101562 127.652344 99.417969 L 126.484375 100.230469 C 125.90625 100.621094 125.328125 101.019531 124.757812 101.4375 C 124.3125 101.761719 123.875 102.101562 123.4375 102.441406 L 122.339844 103.289062 C 121.773438 103.714844 121.207031 104.140625 120.652344 104.59375 C 120.21875 104.945312 119.792969 105.308594 119.367188 105.671875 L 118.265625 106.605469 C 117.734375 107.050781 117.199219 107.5 116.683594 107.964844 C 116.238281 108.359375 115.800781 108.773438 115.363281 109.183594 L 114.261719 110.207031 C 113.890625 110.542969 113.519531 110.882812 113.160156 111.234375 L 112.84375 111.539062 L 104.378906 103.078125 L 104.09375 103.363281 C 102.699219 104.742188 101.34375 106.152344 100.027344 107.585938 C 99.800781 107.835938 98.523438 109.300781 98.523438 109.300781 C 97.734375 110.1875 96.949219 111.074219 96.195312 111.980469 C 95.914062 112.316406 95.640625 112.664062 95.375 113.007812 L 94.332031 114.320312 C 93.746094 115.050781 93.160156 115.777344 92.601562 116.519531 C 92.300781 116.925781 92.011719 117.332031 91.722656 117.746094 L 90.746094 119.105469 C 90.242188 119.800781 89.734375 120.5 89.25 121.210938 C 88.949219 121.65625 88.664062 122.105469 88.378906 122.558594 L 87.402344 124.074219 C 86.976562 124.722656 86.546875 125.382812 86.140625 126.050781 C 85.847656 126.527344 85.566406 127.023438 85.285156 127.511719 L 84.386719 129.078125 C 84.011719 129.71875 83.636719 130.355469 83.285156 131.003906 C 83 131.527344 82.730469 132.054688 82.464844 132.589844 L 81.640625 134.195312 C 81.3125 134.824219 80.984375 135.457031 80.675781 136.09375 C 80.410156 136.640625 80.160156 137.195312 79.914062 137.753906 L 79.191406 139.347656 C 78.894531 140 78.597656 140.640625 78.320312 141.296875 C 78.078125 141.871094 77.851562 142.449219 77.625 143.03125 L 76.988281 144.640625 C 76.730469 145.296875 76.464844 145.949219 76.222656 146.613281 C 75.996094 147.226562 75.785156 147.851562 75.578125 148.476562 L 75.046875 150.050781 C 74.820312 150.707031 74.59375 151.359375 74.386719 152.023438 C 74.1875 152.65625 74.007812 153.296875 73.828125 153.9375 L 73.351562 155.601562 C 73.167969 156.242188 72.980469 156.882812 72.8125 157.53125 C 72.644531 158.164062 72.5 158.804688 72.351562 159.445312 L 71.957031 161.144531 C 71.800781 161.800781 71.644531 162.460938 71.503906 163.125 C 71.367188 163.792969 71.246094 164.460938 71.128906 165.136719 L 70.839844 166.699219 C 70.710938 167.398438 70.578125 168.09375 70.46875 168.792969 C 70.363281 169.460938 70.277344 170.128906 70.191406 170.800781 L 69.976562 172.414062 C 69.882812 173.121094 69.785156 173.828125 69.707031 174.535156 C 69.636719 175.210938 69.582031 175.886719 69.527344 176.5625 L 69.390625 178.191406 C 69.328125 178.90625 69.265625 179.621094 69.222656 180.339844 C 69.183594 181.027344 69.160156 181.71875 69.136719 182.410156 L 69.070312 184.15625 C 69.046875 184.695312 69.023438 185.234375 69.015625 185.78125 L 69.007812 186.21875 L 59.601562 186.21875 L 59.582031 187.484375 C 59.582031 257.9375 116.898438 315.253906 187.355469 315.253906 L 187.824219 315.253906 L 187.757812 293.867188 L 188.207031 293.863281 C 216.527344 293.644531 243.09375 282.429688 263.011719 262.28125 C 282.839844 242.230469 293.757812 215.667969 293.757812 187.484375 L 293.757812 187.070312 L 315.109375 187.03125 L 315.109375 186.625 C 314.882812 152.597656 301.445312 120.664062 277.265625 96.714844 L 276.980469 96.433594 L 261.867188 111.539062 L 261.550781 111.234375 C 261.195312 110.890625 260.832031 110.558594 260.46875 110.222656 L 259.316406 109.15625 C 258.890625 108.75 258.464844 108.351562 258.027344 107.964844 C 257.484375 107.480469 256.929688 107.011719 256.375 106.550781 L 255.378906 105.703125 C 254.9375 105.328125 254.503906 104.953125 254.058594 104.59375 C 253.523438 104.160156 252.980469 103.75 252.4375 103.335938 L 251.3125 102.472656 C 250.863281 102.125 250.410156 101.773438 249.949219 101.4375 C 249.390625 101.03125 248.828125 100.640625 248.261719 100.25 L 247.105469 99.449219 C 246.644531 99.125 246.183594 98.804688 245.714844 98.496094 C 245.144531 98.121094 244.5625 97.761719 243.984375 97.402344 L 242.722656 96.613281 C 242.265625 96.332031 241.8125 96.046875 241.351562 95.769531 C 240.789062 95.4375 240.21875 95.121094 239.648438 94.808594 L 238.339844 94.078125 C 237.855469 93.804688 237.371094 93.527344 236.878906 93.269531 C 236.285156 92.960938 235.679688 92.660156 235.078125 92.367188 L 233.699219 91.683594 C 233.234375 91.445312 232.769531 91.214844 232.296875 90.996094 C 231.679688 90.707031 231.054688 90.433594 230.425781 90.164062 L 229.09375 89.585938 C 228.601562 89.367188 228.113281 89.148438 227.613281 88.945312 C 227.015625 88.695312 226.40625 88.472656 225.800781 88.246094 L 224.308594 87.675781 C 223.820312 87.488281 223.332031 87.300781 222.835938 87.125 C 222.191406 86.898438 221.542969 86.691406 220.890625 86.484375 L 219.460938 86.015625 C 218.964844 85.855469 218.472656 85.6875 217.972656 85.539062 C 217.335938 85.351562 216.695312 85.175781 216.046875 85.003906 L 214.46875 84.574219 C 213.992188 84.445312 213.511719 84.308594 213.027344 84.1875 C 212.363281 84.023438 211.695312 83.878906 211.023438 83.738281 L 209.449219 83.390625 C 208.972656 83.28125 208.496094 83.171875 208.011719 83.078125 C 207.300781 82.9375 206.589844 82.820312 205.878906 82.707031 L 204.382812 82.449219 C 203.898438 82.363281 203.414062 82.28125 202.925781 82.210938 C 202.15625 82.097656 201.382812 82.007812 200.605469 81.914062 L 199.058594 81.730469 C 198.636719 81.679688 198.210938 81.621094 197.785156 81.582031 C 196.769531 81.484375 195.746094 81.417969 194.722656 81.355469 C 194.722656 81.355469 192.90625 81.21875 192.59375 81.207031 C 190.855469 81.121094 189.109375 81.082031 187.355469 81.082031 C 185.601562 81.082031 183.855469 81.121094 182.117188 81.207031 " fill-opacity="1" fill-rule="nonzero"/><path fill="#81a969" d="M 278.144531 222.730469 L 275.90625 220.496094 C 271.332031 232.886719 264.101562 244.515625 254.164062 254.449219 C 243.914062 264.703125 231.875 272.089844 219.042969 276.636719 L 221.277344 278.871094 C 186.691406 291.667969 146.25 284.226562 118.507812 256.488281 C 90.769531 228.75 83.328125 188.304688 96.128906 153.726562 L 98.363281 155.957031 C 102.910156 143.125 110.296875 131.085938 120.546875 120.835938 C 130.484375 110.894531 142.109375 103.667969 154.5 99.089844 L 152.265625 96.859375 C 187.105469 83.445312 228.148438 90.746094 256.203125 118.800781 C 284.253906 146.847656 291.550781 187.894531 278.144531 222.730469 Z M 117.15625 117.445312 C 78.445312 156.152344 78.449219 219.136719 117.15625 257.84375 C 155.863281 296.550781 218.84375 296.550781 257.554688 257.839844 C 296.261719 219.132812 296.261719 156.148438 257.554688 117.445312 C 218.847656 78.738281 155.863281 78.738281 117.15625 117.445312 " fill-opacity="1" fill-rule="nonzero"/><path fill="#81a969" d="M 187.355469 273.878906 C 139.804688 273.878906 101.121094 235.191406 101.121094 187.640625 C 101.121094 140.09375 139.804688 101.40625 187.355469 101.40625 C 234.90625 101.40625 273.589844 140.09375 273.589844 187.640625 C 273.589844 235.191406 234.90625 273.878906 187.355469 273.878906 Z M 249.761719 125.238281 C 240.480469 115.957031 229.621094 109.199219 218.046875 104.925781 L 219.648438 103.324219 C 209.613281 99.464844 198.730469 97.332031 187.355469 97.332031 C 137.558594 97.332031 97.042969 137.847656 97.042969 187.640625 C 97.042969 199.019531 99.179688 209.898438 103.035156 219.9375 L 104.636719 218.335938 C 108.910156 229.902344 115.667969 240.765625 124.949219 250.046875 C 134.523438 259.621094 145.769531 266.523438 157.757812 270.773438 L 156.140625 272.386719 C 165.875 275.984375 176.386719 277.953125 187.355469 277.953125 C 237.152344 277.953125 277.667969 237.4375 277.667969 187.640625 C 277.667969 176.671875 275.695312 166.160156 272.101562 156.425781 L 270.484375 158.046875 C 266.238281 146.058594 259.335938 134.808594 249.761719 125.238281 " fill-opacity="1" fill-rule="nonzero"/><g fill="#81a969" fill-opacity="1"><g transform="translate(123.951191, 194.015442)"><g><path d="M -15.40625 -19.207031 L -15.59375 -16.976562 C -15.617188 -16.714844 -15.492188 -16.5 -15.21875 -16.355469 L -3.101562 -10.324219 C -3.058594 -10.320312 -3.0625 -10.300781 -3.0625 -10.300781 L -3.046875 -10.21875 C -3.046875 -10.21875 -3.070312 -10.21875 -3.109375 -10.203125 L -16.082031 -6.226562 C -16.371094 -6.167969 -16.53125 -5.976562 -16.554688 -5.695312 L -16.742188 -3.507812 C -16.765625 -3.203125 -16.574219 -3.082031 -16.492188 -3.054688 C -16.355469 -3.003906 -16.191406 -3.011719 -15.980469 -3.074219 L -1.480469 -7.554688 C -1.351562 -7.605469 -1.246094 -7.636719 -1.164062 -7.667969 C -0.0625 -7.882812 0.769531 -8.8125 0.863281 -9.925781 C 0.90625 -10.433594 0.789062 -10.933594 0.539062 -11.359375 C 0.488281 -11.488281 0.4375 -11.59375 0.363281 -11.683594 C 0.125 -12.007812 -0.339844 -12.332031 -1.042969 -12.699219 L -14.582031 -19.523438 C -14.777344 -19.621094 -14.9375 -19.65625 -15.082031 -19.628906 C -15.1875 -19.597656 -15.378906 -19.511719 -15.40625 -19.207031 Z M -15.40625 -19.207031 "/></g></g></g><g fill="#81a969" fill-opacity="1"><g transform="translate(126.267141, 174.115885)"><g><path d="M -14.851562 -8.753906 L -15.394531 -6.964844 C -15.441406 -6.808594 -15.484375 -6.394531 -14.878906 -6.210938 L -0.1875 -1.757812 C 0.414062 -1.574219 0.609375 -1.941406 0.65625 -2.09375 L 1.199219 -3.886719 C 1.246094 -4.042969 1.289062 -4.453125 0.683594 -4.636719 L -14.007812 -9.09375 C -14.609375 -9.277344 -14.804688 -8.910156 -14.851562 -8.753906 Z M -14.851562 -8.753906 "/></g></g></g><g fill="#81a969" fill-opacity="1"><g transform="translate(127.528138, 167.665596)"><g><path d="M -7.210938 -22.03125 L -8.066406 -20.4375 C -8.152344 -20.273438 -8.28125 -19.90625 -7.707031 -19.597656 L 3.066406 -13.832031 C 3.085938 -13.824219 3.085938 -13.824219 3.101562 -13.8125 L 3.054688 -13.722656 C 3.046875 -13.707031 3.035156 -13.6875 2.972656 -13.699219 L -10.132812 -13.425781 C -10.480469 -13.425781 -10.761719 -13.414062 -10.988281 -13.375 C -11.238281 -13.347656 -11.445312 -13.296875 -11.605469 -13.222656 C -11.789062 -13.136719 -11.945312 -13.011719 -12.085938 -12.835938 C -12.203125 -12.664062 -12.335938 -12.457031 -12.460938 -12.226562 L -13.179688 -10.882812 C -13.457031 -10.363281 -13.488281 -9.871094 -13.300781 -9.449219 C -13.09375 -9.015625 -12.570312 -8.570312 -11.691406 -8.101562 L 0.15625 -1.761719 C 0.714844 -1.464844 0.976562 -1.78125 1.0625 -1.945312 L 1.917969 -3.539062 C 2.003906 -3.703125 2.113281 -4.082031 1.558594 -4.378906 L -9.214844 -10.144531 C -9.234375 -10.152344 -9.25 -10.164062 -9.25 -10.164062 L -9.203125 -10.253906 C -9.203125 -10.253906 -9.195312 -10.269531 -9.121094 -10.277344 L 3.996094 -10.566406 C 4.359375 -10.558594 4.652344 -10.585938 4.878906 -10.625 C 5.125 -10.65625 5.320312 -10.714844 5.484375 -10.808594 C 5.667969 -10.894531 5.808594 -11.027344 5.941406 -11.1875 C 6.0625 -11.328125 6.1875 -11.515625 6.320312 -11.769531 L 7.023438 -13.078125 C 7.300781 -13.597656 7.332031 -14.085938 7.125 -14.519531 C 6.9375 -14.945312 6.414062 -15.386719 5.535156 -15.855469 L -6.316406 -22.199219 C -6.890625 -22.503906 -7.132812 -22.175781 -7.210938 -22.03125 Z M -7.210938 -22.03125 "/></g></g></g><g fill="#81a969" fill-opacity="1"><g transform="translate(136.645398, 151.701657)"><g><path d="M -10.355469 -13.785156 L -11.542969 -12.339844 C -11.648438 -12.214844 -11.84375 -11.847656 -11.355469 -11.445312 L 0.5 -1.695312 C 0.984375 -1.296875 1.308594 -1.558594 1.410156 -1.683594 L 2.597656 -3.128906 C 2.703125 -3.253906 2.898438 -3.617188 2.410156 -4.019531 L -9.445312 -13.769531 C -9.933594 -14.171875 -10.253906 -13.910156 -10.355469 -13.785156 Z M -10.355469 -13.785156 "/></g></g></g><g fill="#81a969" fill-opacity="1"><g transform="translate(140.419199, 146.293188)"><g><path d="M -0.0507812 -21.867188 L -5.710938 -17.097656 C -6.394531 -16.519531 -6.90625 -15.929688 -7.246094 -15.351562 C -7.585938 -14.746094 -7.742188 -14.109375 -7.710938 -13.472656 C -7.691406 -12.820312 -7.492188 -12.113281 -7.109375 -11.371094 C -6.738281 -10.648438 -6.171875 -9.847656 -5.453125 -8.992188 L -2.855469 -5.914062 C -2.125 -5.042969 -1.433594 -4.351562 -0.769531 -3.847656 C -0.117188 -3.359375 0.546875 -3.042969 1.199219 -2.898438 C 1.839844 -2.773438 2.492188 -2.816406 3.117188 -3.050781 C 3.742188 -3.289062 4.414062 -3.691406 5.097656 -4.269531 L 10.757812 -9.039062 C 10.882812 -9.144531 11.140625 -9.46875 10.734375 -9.949219 L 9.699219 -11.175781 C 9.292969 -11.660156 8.929688 -11.460938 8.804688 -11.355469 L 3.222656 -6.652344 C 2.894531 -6.375 2.589844 -6.171875 2.324219 -6.078125 C 2.066406 -5.96875 1.835938 -5.960938 1.566406 -6.027344 C 1.3125 -6.078125 1.039062 -6.246094 0.726562 -6.488281 C 0.417969 -6.761719 0.0585938 -7.125 -0.332031 -7.589844 L -3.386719 -11.210938 C -3.777344 -11.679688 -4.074219 -12.09375 -4.277344 -12.429688 C -4.464844 -12.777344 -4.570312 -13.058594 -4.589844 -13.335938 C -4.609375 -13.609375 -4.5625 -13.835938 -4.410156 -14.070312 C -4.273438 -14.320312 -4.019531 -14.585938 -3.695312 -14.859375 L 1.886719 -19.5625 C 2.011719 -19.667969 2.269531 -19.992188 1.851562 -20.492188 L 0.839844 -21.6875 C 0.4375 -22.167969 0.0703125 -21.96875 -0.0507812 -21.867188 Z M -0.0507812 -21.867188 "/></g></g></g><g fill="#81a969" fill-opacity="1"><g transform="translate(153.264378, 135.96969)"><g><path d="M -4.761719 -16.570312 L -6.386719 -15.644531 C -6.527344 -15.5625 -6.839844 -15.292969 -6.53125 -14.742188 L 1.070312 -1.40625 C 1.382812 -0.859375 1.777344 -0.988281 1.917969 -1.070312 L 3.542969 -1.996094 C 3.683594 -2.078125 3.996094 -2.347656 3.683594 -2.894531 L -3.914062 -16.234375 C -4.226562 -16.78125 -4.621094 -16.648438 -4.761719 -16.570312 Z M -4.761719 -16.570312 "/></g></g></g><g fill="#81a969" fill-opacity="1"><g transform="translate(158.633679, 132.173718)"><g><path d="M 9.535156 -20.871094 L 7.761719 -20.273438 C 7.589844 -20.214844 7.242188 -20.035156 7.441406 -19.4375 L 10.628906 -9.933594 C 10.824219 -9.355469 10.953125 -8.84375 11.019531 -8.457031 C 11.082031 -8.070312 11.0625 -7.742188 11 -7.484375 C 10.910156 -7.242188 10.78125 -7.046875 10.5625 -6.867188 C 10.339844 -6.707031 10.011719 -6.53125 9.605469 -6.394531 L 5.441406 -5 C 5.039062 -4.863281 4.671875 -4.804688 4.394531 -4.796875 C 4.113281 -4.8125 3.894531 -4.886719 3.675781 -5.027344 C 3.46875 -5.195312 3.257812 -5.445312 3.054688 -5.785156 C 2.875 -6.132812 2.667969 -6.621094 2.476562 -7.199219 L -0.710938 -16.703125 C -0.914062 -17.300781 -1.296875 -17.234375 -1.472656 -17.175781 L -3.226562 -16.589844 C -3.398438 -16.53125 -3.765625 -16.34375 -3.566406 -15.746094 L -0.480469 -6.550781 C -0.121094 -5.472656 0.269531 -4.570312 0.695312 -3.878906 C 1.125 -3.164062 1.628906 -2.625 2.175781 -2.273438 C 2.710938 -1.894531 3.347656 -1.722656 4.023438 -1.691406 C 4.691406 -1.679688 5.457031 -1.828125 6.304688 -2.113281 L 10.640625 -3.570312 C 11.488281 -3.851562 12.1875 -4.195312 12.714844 -4.609375 C 13.253906 -5.046875 13.640625 -5.5625 13.855469 -6.191406 C 14.082031 -6.804688 14.136719 -7.53125 14.050781 -8.359375 C 13.972656 -9.167969 13.742188 -10.121094 13.378906 -11.199219 L 10.292969 -20.394531 C 10.09375 -20.992188 9.707031 -20.925781 9.535156 -20.871094 Z M 9.535156 -20.871094 "/></g></g></g><g fill="#81a969" fill-opacity="1"><g transform="translate(175.536473, 126.467881)"><g><path d="M 10.882812 -10.617188 L 4.792969 -10.28125 C 4.488281 -10.265625 4.09375 -10.367188 4.039062 -11.359375 L 3.957031 -12.863281 C 3.9375 -13.226562 3.984375 -13.515625 4.074219 -13.722656 C 4.148438 -13.851562 4.261719 -14 4.605469 -14.019531 L 12.871094 -14.472656 C 13.03125 -14.480469 13.433594 -14.5625 13.398438 -15.191406 L 13.3125 -16.816406 C 13.277344 -17.445312 12.867188 -17.484375 12.703125 -17.476562 L 3.953125 -16.996094 C 2.839844 -16.933594 2.046875 -16.523438 1.558594 -15.746094 C 1.070312 -14.984375 0.859375 -13.996094 0.925781 -12.820312 L 1.011719 -11.277344 C 1.085938 -9.875 1.433594 -8.753906 1.980469 -8.070312 C 2.65625 -7.273438 3.597656 -7.203125 4.449219 -7.25 L 10.539062 -7.582031 C 10.84375 -7.601562 11.257812 -7.5 11.3125 -6.503906 L 11.40625 -4.757812 C 11.425781 -4.394531 11.382812 -4.105469 11.269531 -3.898438 C 11.195312 -3.769531 11.082031 -3.621094 10.738281 -3.601562 L 2.066406 -3.128906 C 1.886719 -3.117188 1.484375 -3.035156 1.515625 -2.40625 L 1.605469 -0.78125 C 1.640625 -0.152344 2.050781 -0.113281 2.234375 -0.121094 L 11.390625 -0.625 C 12.507812 -0.6875 13.316406 -1.117188 13.804688 -1.898438 C 14.269531 -2.65625 14.484375 -3.625 14.417969 -4.800781 L 14.320312 -6.589844 C 14.246094 -7.910156 13.925781 -8.929688 13.359375 -9.632812 C 12.769531 -10.332031 11.9375 -10.671875 10.882812 -10.617188 Z M 10.882812 -10.617188 "/></g></g></g><g fill="#81a969" fill-opacity="1"><g transform="translate(191.935514, 125.785155)"><g/></g></g><g fill="#81a969" fill-opacity="1"><g transform="translate(202.507983, 127.071827)"><g><path d="M 14.304688 -5.152344 L 8.621094 -7.371094 C 8.335938 -7.480469 8.023438 -7.734375 8.386719 -8.664062 L 8.933594 -10.066406 C 9.066406 -10.40625 9.226562 -10.648438 9.394531 -10.800781 C 9.515625 -10.886719 9.679688 -10.972656 10.003906 -10.847656 L 17.710938 -7.835938 C 17.863281 -7.777344 18.261719 -7.6875 18.492188 -8.273438 L 19.085938 -9.789062 C 19.3125 -10.375 18.957031 -10.578125 18.804688 -10.640625 L 10.644531 -13.828125 C 9.601562 -14.234375 8.710938 -14.191406 7.945312 -13.683594 C 7.1875 -13.191406 6.585938 -12.378906 6.15625 -11.28125 L 5.59375 -9.84375 C 5.082031 -8.535156 4.933594 -7.371094 5.148438 -6.523438 C 5.429688 -5.519531 6.257812 -5.0625 7.054688 -4.753906 L 12.734375 -2.53125 C 13.019531 -2.421875 13.351562 -2.160156 12.988281 -1.234375 L 12.355469 0.394531 C 12.21875 0.738281 12.058594 0.980469 11.871094 1.125 C 11.753906 1.207031 11.585938 1.296875 11.265625 1.171875 L 3.179688 -1.988281 C 3.007812 -2.054688 2.605469 -2.148438 2.378906 -1.558594 L 1.785156 -0.0429688 C 1.554688 0.542969 1.914062 0.746094 2.082031 0.8125 L 10.625 4.152344 C 11.664062 4.558594 12.582031 4.503906 13.347656 3.992188 C 14.089844 3.496094 14.683594 2.703125 15.113281 1.605469 L 15.761719 -0.0625 C 16.246094 -1.292969 16.375 -2.355469 16.148438 -3.230469 C 15.90625 -4.109375 15.289062 -4.765625 14.304688 -5.152344 Z M 14.304688 -5.152344 "/></g></g></g><g fill="#81a969" fill-opacity="1"><g transform="translate(217.769875, 132.739907)"><g><path d="M 21.542969 -2.921875 C 21.523438 -3.570312 21.332031 -4.195312 20.957031 -4.78125 C 20.585938 -5.339844 20.042969 -5.902344 19.328125 -6.4375 L 15.359375 -9.417969 C 14.644531 -9.953125 13.96875 -10.308594 13.332031 -10.507812 C 12.664062 -10.703125 12.011719 -10.710938 11.378906 -10.550781 C 10.765625 -10.375 10.117188 -10.023438 9.484375 -9.480469 C 8.863281 -8.957031 8.222656 -8.242188 7.539062 -7.332031 L 5.121094 -4.113281 C 4.4375 -3.203125 3.917969 -2.371094 3.585938 -1.628906 C 3.246094 -0.867188 3.085938 -0.148438 3.089844 0.488281 C 3.097656 1.15625 3.289062 1.78125 3.675781 2.351562 C 4.027344 2.898438 4.574219 3.460938 5.289062 3.996094 L 9.253906 6.976562 C 9.972656 7.511719 10.664062 7.878906 11.300781 8.078125 C 11.953125 8.289062 12.609375 8.296875 13.238281 8.136719 C 13.882812 7.957031 14.511719 7.59375 15.148438 7.050781 C 15.753906 6.515625 16.421875 5.796875 17.105469 4.886719 L 19.523438 1.664062 C 20.195312 0.769531 20.699219 -0.0703125 21.042969 -0.800781 C 21.386719 -1.5625 21.5625 -2.269531 21.542969 -2.921875 Z M 17.308594 -0.429688 L 14.460938 3.359375 C 14.109375 3.832031 13.789062 4.222656 13.476562 4.5 C 13.210938 4.757812 12.917969 4.945312 12.664062 5.007812 C 12.417969 5.101562 12.167969 5.09375 11.90625 5 C 11.636719 4.921875 11.335938 4.746094 10.992188 4.492188 L 7.1875 1.632812 C 6.847656 1.378906 6.59375 1.136719 6.445312 0.898438 C 6.28125 0.675781 6.207031 0.4375 6.226562 0.175781 C 6.21875 -0.0859375 6.332031 -0.40625 6.488281 -0.75 C 6.683594 -1.109375 6.953125 -1.542969 7.308594 -2.011719 L 10.152344 -5.800781 C 10.507812 -6.273438 10.84375 -6.65625 11.136719 -6.945312 C 11.433594 -7.203125 11.699219 -7.386719 11.964844 -7.46875 C 12.199219 -7.542969 12.449219 -7.535156 12.71875 -7.460938 C 12.980469 -7.367188 13.292969 -7.207031 13.632812 -6.949219 L 17.4375 -4.09375 C 17.78125 -3.835938 18.019531 -3.582031 18.183594 -3.355469 C 18.332031 -3.117188 18.410156 -2.882812 18.402344 -2.632812 C 18.398438 -2.355469 18.3125 -2.039062 18.128906 -1.695312 C 17.949219 -1.320312 17.660156 -0.902344 17.308594 -0.429688 Z M 17.308594 -0.429688 "/></g></g></g><g fill="#81a969" fill-opacity="1"><g transform="translate(232.37975, 143.552869)"><g><path d="M 22.808594 2.488281 L 21.6875 0.992188 C 21.578125 0.847656 21.296875 0.574219 20.792969 0.953125 L 12.773438 6.964844 C 12.285156 7.332031 11.835938 7.617188 11.492188 7.800781 C 11.144531 7.984375 10.828125 8.070312 10.5625 8.089844 C 10.304688 8.082031 10.082031 8.019531 9.839844 7.867188 C 9.617188 7.707031 9.347656 7.449219 9.09375 7.109375 L 6.457031 3.59375 C 6.203125 3.253906 6.03125 2.925781 5.9375 2.664062 C 5.859375 2.390625 5.863281 2.160156 5.929688 1.90625 C 6.023438 1.660156 6.191406 1.378906 6.453125 1.082031 C 6.726562 0.800781 7.125 0.453125 7.613281 0.0859375 L 15.632812 -5.929688 C 16.136719 -6.304688 15.953125 -6.652344 15.84375 -6.796875 L 14.734375 -8.277344 C 14.625 -8.425781 14.332031 -8.714844 13.828125 -8.335938 L 6.066406 -2.515625 C 5.15625 -1.832031 4.425781 -1.183594 3.898438 -0.5625 C 3.359375 0.0742188 3.003906 0.71875 2.84375 1.351562 C 2.652344 1.976562 2.6875 2.636719 2.871094 3.285156 C 3.070312 3.925781 3.453125 4.601562 3.988281 5.320312 L 6.734375 8.980469 C 7.269531 9.695312 7.816406 10.253906 8.371094 10.621094 C 8.957031 10.996094 9.566406 11.199219 10.234375 11.207031 C 10.886719 11.226562 11.59375 11.054688 12.355469 10.710938 C 13.097656 10.382812 13.925781 9.863281 14.839844 9.179688 L 22.597656 3.359375 C 23.101562 2.980469 22.917969 2.636719 22.808594 2.488281 Z M 22.808594 2.488281 "/></g></g></g><g fill="#81a969" fill-opacity="1"><g transform="translate(243.12726, 157.786729)"><g><path d="M 20.5 6.449219 L 16.441406 -3.949219 C 16.382812 -4.101562 16.179688 -4.460938 15.589844 -4.230469 L 14.078125 -3.636719 C 13.488281 -3.410156 13.582031 -3.007812 13.640625 -2.855469 L 17.144531 6.121094 C 17.160156 6.160156 17.148438 6.183594 17.109375 6.199219 L 16.523438 6.429688 C 16.503906 6.4375 16.484375 6.445312 16.476562 6.425781 L 6.667969 0.0820312 C 6.488281 -0.0429688 6.320312 -0.132812 6.171875 -0.183594 C 6.011719 -0.25 5.824219 -0.285156 5.652344 -0.285156 C 5.476562 -0.28125 5.292969 -0.253906 5.070312 -0.210938 C 4.890625 -0.164062 4.683594 -0.0820312 4.417969 0.0234375 L 2.390625 0.8125 C 1.804688 1.042969 1.40625 1.308594 1.191406 1.652344 C 0.957031 2.003906 0.953125 2.445312 1.152344 2.953125 L 5.210938 13.351562 C 5.269531 13.503906 5.476562 13.863281 6.0625 13.632812 L 7.578125 13.042969 C 8.164062 12.8125 8.074219 12.410156 8.015625 12.257812 L 4.511719 3.28125 C 4.496094 3.242188 4.527344 3.210938 4.546875 3.203125 L 5.171875 2.957031 C 5.191406 2.949219 5.207031 2.945312 5.214844 2.960938 L 14.945312 9.269531 C 15.125 9.398438 15.292969 9.484375 15.449219 9.554688 C 15.609375 9.625 15.777344 9.667969 15.976562 9.675781 C 16.152344 9.671875 16.34375 9.664062 16.539062 9.609375 C 16.71875 9.5625 16.894531 9.511719 17.140625 9.417969 L 19.246094 8.597656 C 20.761719 8.003906 20.761719 7.109375 20.5 6.449219 Z M 20.5 6.449219 "/></g></g></g><g fill="#81a969" fill-opacity="1"><g transform="translate(249.529567, 173.101545)"><g><path d="M 15.875 11.214844 C 15.972656 11.164062 16.089844 11.113281 16.167969 11.066406 C 17.195312 10.652344 17.859375 9.617188 17.765625 8.503906 C 17.722656 7.996094 17.539062 7.523438 17.21875 7.140625 C 17.148438 7.023438 17.058594 6.929688 16.992188 6.855469 C 16.703125 6.574219 16.191406 6.3125 15.4375 6.089844 L 0.914062 1.636719 C 0.726562 1.589844 0.542969 1.585938 0.425781 1.636719 C 0.304688 1.667969 0.132812 1.785156 0.160156 2.109375 L 0.351562 4.335938 C 0.371094 4.601562 0.550781 4.789062 0.824219 4.867188 L 3.820312 5.773438 L 4.199219 10.210938 C 4.21875 10.433594 4.335938 10.628906 4.527344 10.714844 C 4.699219 10.824219 4.925781 10.824219 5.121094 10.746094 L 6.863281 9.863281 C 7.097656 9.738281 7.238281 9.503906 7.21875 9.238281 L 7.003906 6.726562 L 13.789062 8.761719 C 13.832031 8.777344 13.851562 8.796875 13.851562 8.796875 L 13.859375 8.875 C 13.859375 8.875 13.859375 8.875 13.820312 8.902344 L 1.710938 14.996094 C 1.433594 15.121094 1.289062 15.335938 1.3125 15.621094 L 1.5 17.789062 C 1.527344 18.113281 1.734375 18.175781 1.839844 18.207031 C 1.964844 18.238281 2.144531 18.203125 2.320312 18.105469 Z M 15.875 11.214844 "/></g></g></g><g fill="#81a969" fill-opacity="1"><g transform="translate(123.871588, 234.005595)"><g><path d="M 20.125 1.980469 C 20.59375 1.238281 20.859375 0.492188 20.964844 -0.210938 C 21.042969 -0.914062 20.933594 -1.636719 20.640625 -2.3125 C 20.34375 -2.992188 19.875 -3.671875 19.207031 -4.355469 L 14.234375 -9.417969 L 14.21875 -9.402344 C 13.777344 -9.796875 13.1875 -9.929688 12.625 -9.804688 C 12.453125 -9.75 12.265625 -9.679688 12.121094 -9.59375 L 2.199219 0.121094 C 2.066406 0.304688 1.964844 0.519531 1.90625 0.722656 C 1.742188 1.339844 1.921875 1.988281 2.363281 2.4375 L 7.238281 7.398438 C 7.90625 8.082031 8.59375 8.574219 9.25 8.867188 C 9.921875 9.175781 10.640625 9.296875 11.359375 9.21875 C 12.050781 9.140625 12.800781 8.886719 13.554688 8.433594 C 14.304688 7.980469 15.101562 7.339844 15.914062 6.542969 L 18.191406 4.304688 C 19.003906 3.507812 19.660156 2.722656 20.125 1.980469 Z M 5.453125 1.113281 L 12.953125 -6.25 C 13.011719 -6.308594 13.054688 -6.324219 13.070312 -6.308594 L 17.015625 -2.289062 C 17.34375 -1.957031 17.585938 -1.621094 17.726562 -1.304688 C 17.867188 -0.988281 17.921875 -0.699219 17.859375 -0.382812 C 17.816406 -0.0546875 17.667969 0.289062 17.421875 0.648438 C 17.144531 1.03125 16.78125 1.476562 16.300781 1.945312 L 13.589844 4.609375 C 13.109375 5.078125 12.660156 5.433594 12.285156 5.691406 C 11.910156 5.945312 11.5625 6.085938 11.230469 6.125 C 10.929688 6.167969 10.628906 6.121094 10.3125 5.972656 C 9.996094 5.828125 9.683594 5.566406 9.355469 5.230469 L 5.394531 1.199219 C 5.394531 1.199219 5.394531 1.171875 5.453125 1.113281 Z M 5.453125 1.113281 "/></g></g></g><g fill="#81a969" fill-opacity="1"><g transform="translate(137.699075, 247.794429)"><g><path d="M 13.660156 4.289062 L 7.601562 0.480469 C 7.238281 0.25 6.980469 0.015625 6.78125 -0.203125 C 6.609375 -0.429688 6.53125 -0.648438 6.503906 -0.90625 C 6.484375 -1.183594 6.542969 -1.507812 6.695312 -1.867188 C 6.734375 -1.964844 6.808594 -2.082031 6.847656 -2.179688 C 6.847656 -2.179688 7.644531 -3.410156 7.660156 -3.398438 L 15.355469 1.4375 C 15.492188 1.523438 15.878906 1.671875 16.214844 1.136719 L 17.070312 -0.222656 C 17.40625 -0.753906 17.09375 -1.023438 16.957031 -1.109375 L 8.0625 -6.675781 C 7.542969 -6.953125 6.949219 -6.96875 6.4375 -6.6875 C 6.265625 -6.605469 6.109375 -6.511719 5.976562 -6.378906 L 4.578125 -4.230469 L 4.527344 -4.144531 C 4.035156 -3.324219 3.6875 -2.582031 3.453125 -1.9375 C 3.171875 -1.152344 3.074219 -0.421875 3.132812 0.214844 C 3.195312 0.878906 3.445312 1.46875 3.878906 2.003906 C 4.28125 2.546875 4.863281 3.035156 5.621094 3.511719 L 11.734375 7.351562 C 11.886719 7.449219 12.265625 7.613281 12.601562 7.078125 L 13.792969 5.1875 C 14.125 4.652344 13.816406 4.382812 13.660156 4.289062 Z M 20.679688 -6.839844 L 10.78125 -13.0625 C 10.640625 -13.148438 10.273438 -13.285156 9.925781 -12.734375 L 9.082031 -11.390625 C 8.746094 -10.855469 9.039062 -10.601562 9.179688 -10.511719 L 19.066406 -4.273438 C 19.203125 -4.1875 19.589844 -4.039062 19.925781 -4.574219 L 20.78125 -5.933594 C 21.117188 -6.46875 20.816406 -6.753906 20.679688 -6.839844 Z M 20.679688 -6.839844 "/></g></g></g><g fill="#81a969" fill-opacity="1"><g transform="translate(153.116558, 257.595606)"><g><path d="M 22.175781 -10.695312 L 20.046875 -11.378906 C 19.796875 -11.460938 19.558594 -11.386719 19.355469 -11.152344 L 10.757812 -0.703125 C 10.746094 -0.664062 10.726562 -0.667969 10.726562 -0.667969 L 10.640625 -0.675781 C 10.640625 -0.675781 10.648438 -0.695312 10.640625 -0.738281 L 9.679688 -14.269531 C 9.6875 -14.566406 9.539062 -14.765625 9.269531 -14.851562 L 7.179688 -15.523438 C 6.886719 -15.617188 6.730469 -15.457031 6.683594 -15.382812 C 6.601562 -15.261719 6.570312 -15.101562 6.585938 -14.882812 L 7.691406 0.257812 C 7.714844 0.390625 7.722656 0.5 7.734375 0.589844 C 7.695312 1.710938 8.414062 2.730469 9.476562 3.074219 C 9.960938 3.230469 10.476562 3.222656 10.949219 3.078125 C 11.085938 3.058594 11.199219 3.03125 11.300781 2.976562 C 11.671875 2.820312 12.09375 2.441406 12.609375 1.839844 L 22.300781 -9.820312 C 22.441406 -9.988281 22.511719 -10.136719 22.515625 -10.285156 C 22.507812 -10.394531 22.46875 -10.601562 22.175781 -10.695312 Z M 22.175781 -10.695312 "/></g></g></g><g fill="#7ed957" fill-opacity="1"><g transform="translate(174.003467, 263.580823)"><g><path d="M 6.144531 -16.109375 L 4.289062 -16.34375 C 4.128906 -16.363281 3.714844 -16.335938 3.632812 -15.710938 L 1.699219 -0.480469 C 1.621094 0.144531 2.015625 0.277344 2.175781 0.296875 L 4.03125 0.53125 C 4.191406 0.554688 4.605469 0.523438 4.6875 -0.101562 L 6.621094 -15.332031 C 6.699219 -15.957031 6.304688 -16.089844 6.144531 -16.109375 Z M 6.144531 -16.109375 "/></g></g></g><g fill="#7ed957" fill-opacity="1"><g transform="translate(181.984459, 265.048167)"><g><path d="M 15.203125 -17.5 L 13.394531 -17.414062 C 13.214844 -17.40625 12.832031 -17.324219 12.859375 -16.675781 L 13.445312 -4.46875 C 13.445312 -4.449219 13.445312 -4.449219 13.445312 -4.429688 L 13.34375 -4.425781 C 13.324219 -4.421875 13.304688 -4.421875 13.28125 -4.480469 L 6.316406 -15.589844 C 6.140625 -15.886719 5.988281 -16.125 5.835938 -16.300781 C 5.683594 -16.496094 5.535156 -16.652344 5.386719 -16.746094 C 5.21875 -16.859375 5.03125 -16.933594 4.808594 -16.960938 C 4.601562 -16.972656 4.359375 -16.980469 4.09375 -16.96875 L 2.570312 -16.894531 C 1.980469 -16.867188 1.546875 -16.644531 1.277344 -16.265625 C 1.011719 -15.863281 0.902344 -15.1875 0.949219 -14.191406 L 1.589844 -0.769531 C 1.621094 -0.136719 2.03125 -0.078125 2.214844 -0.0859375 L 4.023438 -0.171875 C 4.203125 -0.179688 4.585938 -0.28125 4.558594 -0.910156 L 3.972656 -13.117188 C 3.972656 -13.136719 3.972656 -13.15625 3.972656 -13.15625 L 4.074219 -13.160156 C 4.074219 -13.160156 4.09375 -13.164062 4.136719 -13.101562 L 11.121094 -1.996094 C 11.296875 -1.679688 11.472656 -1.445312 11.625 -1.269531 C 11.777344 -1.070312 11.925781 -0.9375 12.089844 -0.84375 C 12.261719 -0.730469 12.445312 -0.675781 12.652344 -0.644531 C 12.835938 -0.613281 13.058594 -0.605469 13.34375 -0.617188 L 14.828125 -0.6875 C 15.414062 -0.71875 15.851562 -0.941406 16.117188 -1.339844 C 16.386719 -1.71875 16.496094 -2.398438 16.449219 -3.390625 L 15.804688 -16.816406 C 15.773438 -17.464844 15.367188 -17.507812 15.203125 -17.5 Z M 15.203125 -17.5 "/></g></g></g><g fill="#81a969" fill-opacity="1"><g transform="translate(202.329313, 263.885651)"><g><path d="M 11.066406 -16.925781 C 10.625 -17.683594 10.085938 -18.261719 9.511719 -18.683594 C 8.925781 -19.078125 8.238281 -19.316406 7.5 -19.367188 C 6.761719 -19.417969 5.941406 -19.320312 5.027344 -19.039062 L -1.761719 -16.976562 L -1.757812 -16.957031 C -2.308594 -16.746094 -2.699219 -16.285156 -2.851562 -15.730469 C -2.882812 -15.550781 -2.90625 -15.351562 -2.898438 -15.183594 L 1.125 -1.894531 C 1.226562 -1.691406 1.371094 -1.5 1.523438 -1.355469 C 1.992188 -0.925781 2.652344 -0.785156 3.253906 -0.96875 L 9.90625 -2.992188 C 10.820312 -3.269531 11.578125 -3.648438 12.144531 -4.097656 C 12.726562 -4.550781 13.167969 -5.132812 13.429688 -5.804688 C 13.679688 -6.457031 13.800781 -7.238281 13.746094 -8.113281 C 13.695312 -8.988281 13.496094 -9.992188 13.164062 -11.082031 L 12.234375 -14.136719 C 11.902344 -15.222656 11.511719 -16.167969 11.066406 -16.925781 Z M 3.511719 -4.320312 L 0.453125 -14.375 C 0.429688 -14.453125 0.4375 -14.5 0.453125 -14.503906 L 5.84375 -16.144531 C 6.289062 -16.28125 6.699219 -16.339844 7.042969 -16.316406 C 7.390625 -16.296875 7.671875 -16.210938 7.921875 -16.011719 C 8.195312 -15.816406 8.433594 -15.527344 8.632812 -15.144531 C 8.847656 -14.71875 9.070312 -14.191406 9.265625 -13.550781 L 10.375 -9.914062 C 10.570312 -9.269531 10.675781 -8.710938 10.730469 -8.257812 C 10.78125 -7.804688 10.746094 -7.433594 10.628906 -7.121094 C 10.523438 -6.835938 10.34375 -6.589844 10.066406 -6.378906 C 9.792969 -6.167969 9.414062 -6.007812 8.96875 -5.871094 L 3.558594 -4.226562 C 3.558594 -4.226562 3.535156 -4.242188 3.511719 -4.320312 Z M 3.511719 -4.320312 "/></g></g></g><g fill="#81a969" fill-opacity="1"><g transform="translate(220.951237, 258.007371)"><g><path d="M 10.121094 -10.125 L 3.941406 -6.515625 C 3.570312 -6.300781 3.242188 -6.179688 2.957031 -6.105469 C 2.675781 -6.0625 2.445312 -6.089844 2.203125 -6.183594 C 1.949219 -6.296875 1.691406 -6.496094 1.445312 -6.800781 C 1.375 -6.878906 1.304688 -7 1.234375 -7.078125 C 1.234375 -7.078125 0.515625 -8.351562 0.53125 -8.363281 L 8.378906 -12.945312 C 8.519531 -13.027344 8.832031 -13.304688 8.511719 -13.847656 L 7.703125 -15.234375 C 7.382812 -15.78125 7.003906 -15.628906 6.863281 -15.546875 L -2.1875 -10.238281 C -2.675781 -9.902344 -2.960938 -9.382812 -2.949219 -8.800781 C -2.957031 -8.609375 -2.945312 -8.429688 -2.886719 -8.25 L -1.628906 -6.015625 L -1.578125 -5.929688 C -1.078125 -5.113281 -0.582031 -4.464844 -0.121094 -3.957031 C 0.449219 -3.347656 1.050781 -2.921875 1.640625 -2.675781 C 2.257812 -2.425781 2.898438 -2.375 3.574219 -2.511719 C 4.238281 -2.617188 4.941406 -2.910156 5.714844 -3.359375 L 11.945312 -7 C 12.105469 -7.09375 12.425781 -7.351562 12.105469 -7.894531 L 10.980469 -9.828125 C 10.660156 -10.371094 10.277344 -10.21875 10.121094 -10.125 Z M 3.503906 -21.496094 L -6.589844 -15.601562 C -6.730469 -15.519531 -7.023438 -15.253906 -6.695312 -14.691406 L -5.894531 -13.320312 C -5.578125 -12.777344 -5.214844 -12.917969 -5.074219 -13 L 5.03125 -18.878906 C 5.171875 -18.960938 5.484375 -19.238281 5.164062 -19.78125 L 4.355469 -21.167969 C 4.035156 -21.710938 3.644531 -21.578125 3.503906 -21.496094 Z M 3.503906 -21.496094 "/></g></g></g><g fill="#81a969" fill-opacity="1"><g transform="translate(236.774889, 248.876365)"><g><path d="M 0.78125 -24.609375 L -0.8125 -23.039062 C -1 -22.851562 -1.046875 -22.609375 -0.933594 -22.320312 L 4.355469 -9.859375 C 4.382812 -9.832031 4.371094 -9.816406 4.371094 -9.816406 L 4.324219 -9.746094 C 4.324219 -9.746094 4.3125 -9.761719 4.269531 -9.773438 L -8.171875 -15.183594 C -8.429688 -15.328125 -8.675781 -15.289062 -8.878906 -15.089844 L -10.441406 -13.546875 C -10.660156 -13.332031 -10.589844 -13.117188 -10.546875 -13.042969 C -10.476562 -12.914062 -10.347656 -12.8125 -10.144531 -12.726562 L 3.785156 -6.703125 C 3.914062 -6.65625 4.015625 -6.613281 4.101562 -6.585938 C 5.074219 -6.03125 6.3125 -6.195312 7.109375 -6.980469 C 7.472656 -7.335938 7.703125 -7.792969 7.792969 -8.28125 C 7.839844 -8.410156 7.867188 -8.527344 7.871094 -8.640625 C 7.902344 -9.042969 7.761719 -9.589844 7.464844 -10.328125 L 1.613281 -24.316406 C 1.527344 -24.515625 1.429688 -24.648438 1.300781 -24.71875 C 1.199219 -24.765625 0.996094 -24.824219 0.78125 -24.609375 Z M 0.78125 -24.609375 "/></g></g></g></svg>